<?xml version="1.0" encoding="utf-8"?>
<svg viewBox="0 0 500 500" xmlns="http://www.w3.org/2000/svg">
  <g style="" transform="matrix(1.288833, 0, 0, 1.276183, -2.337241, -16.534271)">
    <rect x="8.092" y="95.929" width="191.908" height="12.629" style="fill: rgb(105, 105, 105);"/>
    <rect x="8.092" y="59.867" width="191.908" height="12.629" style="fill: rgb(105, 105, 105);"/>
    <rect x="8.092" y="77.898" width="191.908" height="12.629" style="fill: rgb(105, 105, 105);"/>
    <rect x="8.092" y="131.991" width="191.908" height="12.629" style="fill: rgb(105, 105, 105);"/>
    <rect x="8.092" y="113.96" width="191.908" height="12.629" style="fill: rgb(105, 105, 105);"/>
    <rect x="8.092" y="150.022" width="191.908" height="12.629" style="fill: rgb(105, 105, 105);"/>
    <rect x="8.092" y="168.053" width="191.908" height="12.629" style="fill: rgb(105, 105, 105);"/>
    <rect x="8.092" y="222.146" width="191.908" height="12.629" style="fill: rgb(105, 105, 105);"/>
    <rect x="8.092" y="186.084" width="191.908" height="12.629" style="fill: rgb(105, 105, 105);"/>
    <rect x="8.092" y="204.115" width="191.908" height="12.629" style="fill: rgb(105, 105, 105);"/>
    <rect x="8.092" y="258.208" width="191.908" height="12.629" style="fill: rgb(105, 105, 105);"/>
    <rect x="8.092" y="240.177" width="191.908" height="12.629" style="fill: rgb(105, 105, 105);"/>
    <rect x="8.092" y="276.239" width="191.908" height="12.629" style="fill: rgb(105, 105, 105);"/>
    <rect x="8.092" y="294.272" width="191.908" height="12.629" style="fill: rgb(105, 105, 105);"/>
  </g>
  <path d="M 329.711 53.792 L 314.301 53.792 L 314.301 51.792 L 322.631 42.042 L 314.301 32.212 L 314.301 30.202 L 328.651 30.202 L 328.651 34.612 L 326.331 34.612 L 326.131 32.322 L 317.501 32.322 L 325.491 41.882 L 325.491 42.222 L 317.501 51.672 L 327.211 51.672 L 327.411 49.402 L 329.711 49.402 L 329.711 53.792 Z" transform="matrix(16.29661750793457, 0, 0, 10.580219268798828, -4940.52001953125, -87.11648559570312)" style="fill: rgb(238, 171, 48); white-space: pre;"/>
</svg>